HIERARCHY
ROOT Hips
{
	OFFSET 0.000000 0.000000 0.000000
	CHANNELS 6 Xposition Yposition Zposition Xrotation Yrotation Zrotation
	JOINT Spine
	{
		OFFSET 0.000000 0.042231 0.063346
		CHANNELS 3 Xrotation Yrotation Zrotation
		JOINT Spine1
		{
			OFFSET 0.000000 0.014667 0.083179
			CHANNELS 3 Xrotation Yrotation Zrotation
			JOINT Spine2
			{
				OFFSET 0.000000 0.007361 0.084141
				CHANNELS 3 Xrotation Yrotation Zrotation
				JOINT Spine3
				{
					OFFSET 0.000000 0.000000 0.084462
					CHANNELS 3 Xrotation Yrotation Zrotation
					JOINT Neck
					{
						OFFSET 0.000000 -0.031673 0.221713
						CHANNELS 3 Xrotation Yrotation Zrotation
						JOINT Head
						{
							OFFSET 0.000000 -0.020167 0.114371
							CHANNELS 3 Xrotation Yrotation Zrotation
							End Site
							{
								OFFSET 0.000000 0.000000 0.000000
							}
						}
					}
					JOINT RightShoulder
					{
						OFFSET -0.029161 -0.048602 0.157471
						CHANNELS 3 Xrotation Yrotation Zrotation
						JOINT RightArm
						{
							OFFSET -0.144834 0.000000 0.000000
							CHANNELS 3 Xrotation Yrotation Zrotation
							JOINT RightForeArm
							{
								OFFSET -0.274949 0.000000 0.000000
								CHANNELS 3 Xrotation Yrotation Zrotation
								JOINT RightHand
								{
									OFFSET -0.254725 0.000000 0.000000
									CHANNELS 3 Xrotation Yrotation Zrotation
									JOINT RightHandEnd
									{
										OFFSET -0.068160 0.000000 0.000000
										CHANNELS 3 Xrotation Yrotation Zrotation
										End Site
										{
											OFFSET 0.000000 0.000000 0.000000
										}
									}
									JOINT RightHandThumb1
									{
										OFFSET -0.027264 -0.045440 -0.018176
										CHANNELS 3 Xrotation Yrotation Zrotation
										End Site
										{
											OFFSET 0.000000 0.000000 0.000000
										}
									}
								}
							}
						}
					}
					JOINT LeftShoulder
					{
						OFFSET 0.029161 -0.048602 0.157471
						CHANNELS 3 Xrotation Yrotation Zrotation
						JOINT LeftArm
						{
							OFFSET 0.144834 0.000000 0.000000
							CHANNELS 3 Xrotation Yrotation Zrotation
							JOINT LeftForeArm
							{
								OFFSET 0.274949 0.000000 0.000000
								CHANNELS 3 Xrotation Yrotation Zrotation
								JOINT LeftHand
								{
									OFFSET 0.254725 0.000000 0.000000
									CHANNELS 3 Xrotation Yrotation Zrotation
									JOINT LeftHandEnd
									{
										OFFSET 0.068160 0.000000 0.000000
										CHANNELS 3 Xrotation Yrotation Zrotation
										End Site
										{
											OFFSET 0.000000 0.000000 0.000000
										}
									}
									JOINT LeftHandThumb1
									{
										OFFSET 0.027264 -0.045440 -0.018176
										CHANNELS 3 Xrotation Yrotation Zrotation
										End Site
										{
											OFFSET 0.000000 0.000000 0.000000
										}
									}
								}
							}
						}
					}
				}
			}
		}
	}
	JOINT RightUpLeg
	{
		OFFSET -0.086512 0.000000 -0.025273
		CHANNELS 3 Xrotation Yrotation Zrotation
		JOINT RightLeg
		{
			OFFSET 0.000000 0.000000 -0.433119
			CHANNELS 3 Xrotation Yrotation Zrotation
			JOINT RightFoot
			{
				OFFSET 0.000000 0.000000 -0.404688
				CHANNELS 3 Xrotation Yrotation Zrotation
				JOINT RightToeBase
				{
					OFFSET 0.000000 -0.126496 -0.046041
					CHANNELS 3 Xrotation Yrotation Zrotation
					End Site
					{
						OFFSET 0.000000 0.000000 0.000000
					}
				}
			}
		}
	}
	JOINT LeftUpLeg
	{
		OFFSET 0.086512 0.000000 -0.025273
		CHANNELS 3 Xrotation Yrotation Zrotation
		JOINT LeftLeg
		{
			OFFSET 0.000000 0.000000 -0.433119
			CHANNELS 3 Xrotation Yrotation Zrotation
			JOINT LeftFoot
			{
				OFFSET 0.000000 0.000000 -0.404688
				CHANNELS 3 Xrotation Yrotation Zrotation
				JOINT LeftToeBase
				{
					OFFSET 0.000000 -0.126496 -0.046041
					CHANNELS 3 Xrotation Yrotation Zrotation
					End Site
					{
						OFFSET 0.000000 0.000000 0.000000
					}
				}
			}
		}
	}
}
MOTION
Frames: 6
Frame Time: 0.033333
0.090973 -2.018949 0.891301 1.126600 2.072300 -178.592100 2.379300 3.519100 -1.504000 2.198300 0.208400 0.036000 2.206700 -0.434600 0.643500 1.069800 -0.384300 0.513000 0.107300 0.386100 3.038400 -10.236200 5.596400 4.239100 7.451300 -6.498600 3.028300 29.940400 -48.965600 36.398700 0.000000 0.000100 69.014400 -36.370900 14.858500 5.518500 0.000000 0.000000 0.000000 0.000000 0.000000 0.000000 11.261000 3.853200 -7.732300 34.420400 37.604800 -46.960100 0.000000 -0.000100 -70.905200 -39.059500 -20.156100 -9.131000 0.000000 0.000000 0.000000 0.000000 0.000000 0.000000 -16.613400 8.921500 -31.079200 16.808200 0.000000 0.000000 -10.680200 -0.304200 -18.331000 -5.632200 0.000000 0.000000 -0.338500 0.765800 19.207400 11.401900 0.000000 0.000000 -14.977800 15.041500 20.668300 -2.492700 0.000000 0.000000 
0.090818 -2.032853 0.892840 0.930800 1.662200 -178.800600 2.170400 3.202300 -1.331100 2.021100 0.204300 0.027500 2.227400 -0.460100 0.539400 1.070400 -0.393900 0.489700 0.126400 0.444000 3.165200 -10.192300 5.601900 4.378400 7.326700 -6.803500 3.076300 30.176600 -48.625200 36.426500 0.000000 0.000100 68.782900 -36.034400 14.754400 5.453800 0.000000 0.000000 0.000000 0.000000 0.000000 0.000000 11.407300 3.989000 -7.582700 34.742400 37.281000 -46.711200 0.000000 -0.000100 -71.024200 -39.325000 -20.370500 -9.470600 0.000000 0.000000 0.000000 0.000000 0.000000 0.000000 -15.941900 8.850400 -27.562600 21.625400 0.000000 0.000000 -12.650000 1.717700 -20.672900 -5.843300 0.000000 0.000000 -1.022300 0.475700 20.117000 10.466100 0.000000 0.000000 -13.709300 14.816200 19.911300 -2.288300 0.000000 0.000000 
0.092060 -2.046127 0.894103 0.623000 1.244500 -178.502300 1.872400 2.821700 -1.119400 1.793100 0.182200 0.010300 2.228500 -0.483000 0.241500 1.040400 -0.341400 0.403900 0.090700 0.452800 3.119600 -9.966300 5.644500 4.396100 7.294600 -7.179000 2.947900 30.253800 -48.753400 36.359200 0.000000 0.000100 68.679600 -35.449200 14.602700 5.331200 0.000000 0.000000 0.000000 0.000000 0.000000 0.000000 11.523300 4.103800 -7.558000 35.094300 36.948100 -46.518400 0.000000 -0.000100 -71.023300 -39.493100 -20.609800 -9.638300 0.000000 0.000000 0.000000 0.000000 0.000000 0.000000 -14.635000 8.687600 -25.747600 25.213200 0.000000 0.000000 -14.170100 3.544300 -22.626600 -5.871600 0.000000 0.000000 -1.970300 0.078300 20.195900 9.798700 0.000000 0.000000 -12.528600 14.678800 19.521100 -2.006600 0.000000 0.000000 
0.093955 -2.058419 0.894819 0.378800 1.088600 -178.243700 1.562600 2.531500 -0.884500 1.544600 0.158600 0.010000 2.253500 -0.426800 0.121800 1.005100 -0.270900 0.336200 -0.015400 0.518200 3.052900 -9.641000 5.699200 4.327000 7.351600 -7.431600 2.783800 30.282500 -49.116800 36.175000 0.000000 0.000100 68.757000 -34.915900 14.432000 5.168700 0.000000 0.000000 0.000000 0.000000 0.000000 0.000000 11.619200 4.298700 -7.510300 35.364600 36.780600 -46.400000 0.000000 -0.000100 -71.023500 -39.459500 -20.673300 -9.501600 0.000000 0.000000 0.000000 0.000000 0.000000 0.000000 -12.707300 8.712200 -24.648500 27.494000 0.000000 0.000000 -15.735000 4.730000 -24.478100 -5.907800 0.000000 0.000000 -2.768600 -0.085600 20.033300 9.116700 0.000000 0.000000 -11.362500 14.611800 19.294200 -1.834300 0.000000 0.000000 
0.096291 -2.069925 0.894829 0.162000 1.242200 -178.327400 1.219800 2.363800 -0.646200 1.270200 0.145600 0.017100 2.284300 -0.291300 0.328900 0.983400 -0.214800 0.322500 -0.116100 0.677700 3.125900 -9.323600 5.738100 4.258900 7.465500 -7.508300 2.740400 30.440500 -49.347600 36.026700 0.000000 0.000100 68.817500 -34.674400 14.382000 5.134100 0.000000 0.000000 0.000000 0.000000 0.000000 0.000000 11.694300 4.630600 -7.307200 35.542900 36.760000 -46.351500 0.000000 -0.000100 -71.023100 -39.252600 -20.566200 -9.283100 0.000000 0.000000 0.000000 0.000000 0.000000 0.000000 -10.415300 8.897700 -23.662500 28.425400 0.000000 0.000000 -17.396000 6.149600 -26.037800 -5.944100 0.000000 0.000000 -3.457900 0.032900 20.124500 8.475400 0.000000 0.000000 -10.330300 14.428800 19.113200 -1.841800 0.000000 0.000000 
0.099372 -2.081312 0.894197 -0.132100 1.641400 -178.670400 0.829800 2.309300 -0.401600 0.984200 0.144200 0.041600 2.275800 -0.108000 0.720500 0.963600 -0.186300 0.343500 -0.193600 0.908500 3.353100 -9.052200 5.783100 4.260800 7.568900 -7.489600 2.839600 30.767500 -49.302200 36.013200 0.000000 0.000100 68.779700 -34.737700 14.465900 5.238400 0.000000 0.000000 0.000000 0.000000 0.000000 0.000000 11.786000 5.022300 -6.985800 35.603700 36.845000 -46.309000 0.000000 -0.000100 -71.035400 -38.987400 -20.414900 -9.182100 0.000000 0.000000 0.000000 0.000000 0.000000 0.000000 -8.051300 9.135400 -22.636400 28.313000 0.000000 0.000000 -18.194100 8.052200 -26.781600 -5.992800 0.000000 0.000000 -4.303400 0.316500 20.425900 8.050800 0.000000 0.000000 -9.464900 14.221000 19.070900 -1.823300 0.000000 0.000000 
